<svg xmlns="http://www.w3.org/2000/svg" width="1500" height="1000" viewBox="0 0 1500 1000"><rect width="100%" height="100%" fill="#DDDDDD"/><path fill="#999999" d="M357.25 542.5h20.54v14.62h-63.2V542.5h23.15v-66.59q0-3.95.24-8.14l-16.44 13.75q-1.42 1.1-2.8 1.38-1.38.28-2.61.04-1.22-.24-2.17-.83t-1.42-1.3l-6.16-8.46 34.83-29.62h16.04v99.77Zm66.52-81.92-4.03 23.78q3.79-.79 7.27-1.14 3.47-.36 6.71-.36 9.01 0 15.88 2.69 6.88 2.68 11.54 7.42 4.66 4.74 7.03 11.1 2.37 6.36 2.37 13.71 0 9.08-3.2 16.59-3.2 7.5-8.89 12.84-5.69 5.33-13.47 8.25t-16.94 2.92q-5.38 0-10.2-1.1-4.81-1.11-9.04-2.96-4.23-1.86-7.82-4.27-3.6-2.41-6.44-5.1l6-8.29q1.9-2.69 4.98-2.69 1.98 0 4.03 1.27 2.05 1.26 4.7 2.76 2.65 1.5 6.24 2.77 3.6 1.26 8.65 1.26 5.37 0 9.48-1.74t6.83-4.86q2.73-3.12 4.11-7.42 1.39-4.31 1.39-9.36 0-9.33-5.42-14.58-5.41-5.25-15.99-5.25-8.14 0-16.67 3l-12.17-3.48 9.48-55.45h56.41v8.29q0 4.19-2.61 6.8-2.61 2.6-8.85 2.6h-31.36ZM567 500q0 14.93-3.2 25.95-3.2 11.03-8.85 18.21-5.65 7.19-13.35 10.71-7.7 3.51-16.63 3.51t-16.55-3.51q-7.63-3.52-13.23-10.71-5.61-7.18-8.77-18.21-3.16-11.02-3.16-25.95 0-15.01 3.16-25.99 3.16-10.98 8.77-18.17 5.6-7.19 13.23-10.7 7.62-3.52 16.55-3.52t16.63 3.52q7.7 3.51 13.35 10.7 5.65 7.19 8.85 18.17Q567 484.99 567 500Zm-20.15 0q0-12.4-1.82-20.54-1.81-8.13-4.85-12.95-3.05-4.82-7-6.76-3.95-1.93-8.21-1.93-4.19 0-8.1 1.93-3.91 1.94-6.91 6.76t-4.78 12.95q-1.78 8.14-1.78 20.54 0 12.41 1.78 20.54 1.78 8.14 4.78 12.96t6.91 6.75q3.91 1.94 8.1 1.94 4.26 0 8.21-1.94 3.95-1.93 7-6.75 3.04-4.82 4.85-12.96 1.82-8.13 1.82-20.54Zm111.79 0q0 14.93-3.2 25.95-3.2 11.03-8.85 18.21-5.65 7.19-13.35 10.71-7.7 3.51-16.63 3.51t-16.55-3.51q-7.63-3.52-13.23-10.71-5.61-7.18-8.77-18.21-3.16-11.02-3.16-25.95 0-15.01 3.16-25.99 3.16-10.98 8.77-18.17 5.6-7.19 13.23-10.7 7.62-3.52 16.55-3.52t16.63 3.52q7.7 3.51 13.35 10.7 5.65 7.19 8.85 18.17 3.2 10.98 3.2 25.99Zm-20.15 0q0-12.4-1.82-20.54-1.81-8.13-4.85-12.95-3.05-4.82-7-6.76-3.95-1.93-8.21-1.93-4.19 0-8.1 1.93-3.91 1.94-6.91 6.76t-4.78 12.95q-1.78 8.14-1.78 20.54 0 12.41 1.78 20.54 1.78 8.14 4.78 12.96t6.91 6.75q3.91 1.94 8.1 1.94 4.26 0 8.21-1.94 3.95-1.93 7-6.75 3.04-4.82 4.85-12.96 1.82-8.13 1.82-20.54Zm145.6 30.97-10.35 10.19-26.78-26.78-27.02 26.94-10.35-10.19 27.02-27.1-25.75-25.75 10.27-10.27 25.75 25.75 25.6-25.59 10.42 10.27-25.67 25.67 26.86 26.86Zm108.15 11.53h20.54v14.62h-63.2V542.5h23.15v-66.59q0-3.95.23-8.14l-16.43 13.75q-1.42 1.1-2.8 1.38-1.39.28-2.61.04-1.22-.24-2.17-.83t-1.42-1.3l-6.17-8.46 34.84-29.62h16.04v99.77Zm118.1-42.5q0 14.93-3.2 25.95-3.2 11.03-8.84 18.21-5.65 7.19-13.35 10.71-7.71 3.51-16.63 3.51-8.93 0-16.55-3.51-7.63-3.52-13.24-10.71-5.61-7.18-8.77-18.21-3.16-11.02-3.16-25.95 0-15.01 3.16-25.99 3.16-10.98 8.77-18.17 5.61-7.19 13.24-10.7 7.62-3.52 16.55-3.52 8.92 0 16.63 3.52 7.7 3.51 13.35 10.7 5.64 7.19 8.84 18.17t3.2 25.99Zm-20.14 0q0-12.4-1.82-20.54-1.81-8.13-4.86-12.95-3.04-4.82-6.99-6.76-3.95-1.93-8.21-1.93-4.19 0-8.1 1.93-3.91 1.94-6.91 6.76-3.01 4.82-4.78 12.95-1.78 8.14-1.78 20.54 0 12.41 1.78 20.54 1.77 8.14 4.78 12.96 3 4.82 6.91 6.75 3.91 1.94 8.1 1.94 4.26 0 8.21-1.94 3.95-1.93 6.99-6.75 3.05-4.82 4.86-12.96 1.82-8.13 1.82-20.54Zm111.78 0q0 14.93-3.2 25.95-3.19 11.03-8.84 18.21-5.65 7.19-13.35 10.71-7.71 3.51-16.63 3.51-8.93 0-16.55-3.51-7.63-3.52-13.24-10.71-5.61-7.18-8.77-18.21-3.16-11.02-3.16-25.95 0-15.01 3.16-25.99 3.16-10.98 8.77-18.17 5.61-7.19 13.24-10.7 7.62-3.52 16.55-3.52 8.92 0 16.63 3.52 7.7 3.51 13.35 10.7 5.65 7.19 8.84 18.17 3.2 10.98 3.2 25.99Zm-20.14 0q0-12.4-1.82-20.54-1.81-8.13-4.86-12.95-3.04-4.82-6.99-6.76-3.95-1.93-8.21-1.93-4.19 0-8.1 1.93-3.91 1.94-6.91 6.76-3.01 4.82-4.78 12.95-1.78 8.14-1.78 20.54 0 12.41 1.78 20.54 1.77 8.14 4.78 12.96 3 4.82 6.91 6.75 3.91 1.94 8.1 1.94 4.26 0 8.21-1.94 3.95-1.93 6.99-6.75 3.05-4.82 4.86-12.96 1.82-8.13 1.82-20.54Zm111.78 0q0 14.93-3.2 25.95-3.19 11.03-8.84 18.21-5.65 7.19-13.35 10.71-7.71 3.51-16.63 3.51-8.93 0-16.55-3.51-7.63-3.52-13.24-10.71-5.61-7.18-8.77-18.21-3.16-11.02-3.16-25.95 0-15.01 3.16-25.99 3.16-10.98 8.77-18.17 5.61-7.19 13.24-10.7 7.62-3.52 16.55-3.52 8.92 0 16.63 3.52 7.7 3.51 13.35 10.7 5.65 7.19 8.84 18.17 3.2 10.98 3.2 25.99Zm-20.14 0q0-12.4-1.82-20.54-1.81-8.13-4.86-12.95-3.04-4.82-6.99-6.76-3.95-1.93-8.21-1.93-4.19 0-8.1 1.93-3.91 1.94-6.91 6.76-3.01 4.82-4.78 12.95-1.78 8.14-1.78 20.54 0 12.41 1.78 20.54 1.77 8.14 4.78 12.96 3 4.82 6.91 6.75 3.91 1.94 8.1 1.94 4.26 0 8.21-1.94 3.95-1.93 6.99-6.75 3.05-4.82 4.86-12.96 1.82-8.13 1.82-20.54Z"/></svg>