<svg xmlns="http://www.w3.org/2000/svg" width="1900" height="1000" viewBox="0 0 1900 1000"><rect width="100%" height="100%" fill="#DDDDDD"/><path fill="#999999" d="M452.85 553.8h26v18.5h-80v-18.5h29.3v-84.3q0-5 .3-10.3l-20.8 17.4q-1.8 1.4-3.55 1.75-1.75.35-3.3.05-1.55-.3-2.75-1.05t-1.8-1.65l-7.8-10.7 44.1-37.5h20.3v126.3Zm71.5-82.7q0 12.1 6.25 18.45t17.75 6.35q6 0 10.7-1.9 4.7-1.9 7.9-5.2 3.2-3.3 4.85-7.8 1.65-4.5 1.65-9.7 0-5.9-1.8-10.55t-5.1-7.85q-3.3-3.2-7.85-4.9-4.55-1.7-9.95-1.7-5.6 0-10.1 1.85t-7.7 5.15q-3.2 3.3-4.9 7.85-1.7 4.55-1.7 9.95Zm-12.1 101.2 44.9-56.1q1.7-2.1 3.2-4.1 1.5-2 2.9-4-5 3.2-11 4.85-6 1.65-12.6 1.65-7.5 0-14.7-2.6-7.2-2.6-12.8-7.85-5.6-5.25-9.05-13-3.45-7.75-3.45-18.15 0-9.7 3.6-18.2t10.1-14.9q6.5-6.4 15.6-10.1 9.1-3.7 20.1-3.7 11.1 0 19.95 3.5t15.1 9.8q6.25 6.3 9.6 15.1 3.35 8.8 3.35 19.3 0 6.7-1.15 12.7-1.15 6-3.25 11.55-2.1 5.55-5.1 10.85-3 5.3-6.7 10.5l-33.1 47.2q-1.7 2.4-5.1 4.05-3.4 1.65-7.7 1.65h-22.7Zm206.1-72.3q0 18.9-4.05 32.85-4.05 13.95-11.2 23.05-7.15 9.1-16.9 13.55-9.75 4.45-21.05 4.45t-20.95-4.45q-9.65-4.45-16.75-13.55-7.1-9.1-11.1-23.05-4-13.95-4-32.85 0-19 4-32.9 4-13.9 11.1-23t16.75-13.55q9.65-4.45 20.95-4.45 11.3 0 21.05 4.45t16.9 13.55q7.15 9.1 11.2 23 4.05 13.9 4.05 32.9Zm-25.5 0q0-15.7-2.3-26t-6.15-16.4q-3.85-6.1-8.85-8.55-5-2.45-10.4-2.45-5.3 0-10.25 2.45t-8.75 8.55q-3.8 6.1-6.05 16.4-2.25 10.3-2.25 26t2.25 26q2.25 10.3 6.05 16.4 3.8 6.1 8.75 8.55 4.95 2.45 10.25 2.45 5.4 0 10.4-2.45t8.85-8.55q3.85-6.1 6.15-16.4 2.3-10.3 2.3-26Zm141.5 0q0 18.9-4.05 32.85-4.05 13.95-11.2 23.05-7.15 9.1-16.9 13.55-9.75 4.45-21.05 4.45t-20.95-4.45q-9.65-4.45-16.75-13.55-7.1-9.1-11.1-23.05-4-13.95-4-32.85 0-19 4-32.9 4-13.9 11.1-23t16.75-13.55q9.65-4.45 20.95-4.45 11.3 0 21.05 4.45t16.9 13.55q7.15 9.1 11.2 23 4.05 13.9 4.05 32.9Zm-25.5 0q0-15.7-2.3-26t-6.15-16.4q-3.85-6.1-8.85-8.55-5-2.45-10.4-2.45-5.3 0-10.25 2.45t-8.75 8.55q-3.8 6.1-6.05 16.4-2.25 10.3-2.25 26t2.25 26q2.25 10.3 6.05 16.4 3.8 6.1 8.75 8.55 4.95 2.45 10.25 2.45 5.4 0 10.4-2.45t8.85-8.55q3.85-6.1 6.15-16.4 2.3-10.3 2.3-26Zm184.3 39.2-13.1 12.9-33.9-33.9-34.2 34.1-13.1-12.9 34.2-34.3-32.6-32.6 13-13 32.6 32.6 32.4-32.4 13.2 13-32.5 32.5 34 34Zm136.9 14.6h26v18.5h-80v-18.5h29.3v-84.3q0-5 .3-10.3l-20.8 17.4q-1.8 1.4-3.55 1.75-1.75.35-3.3.05-1.55-.3-2.75-1.05t-1.8-1.65l-7.8-10.7 44.1-37.5h20.3v126.3Zm149.5-53.8q0 18.9-4.05 32.85-4.05 13.95-11.2 23.05-7.15 9.1-16.9 13.55-9.75 4.45-21.05 4.45t-20.95-4.45q-9.65-4.45-16.75-13.55-7.1-9.1-11.1-23.05-4-13.95-4-32.85 0-19 4-32.9 4-13.9 11.1-23t16.75-13.55q9.65-4.45 20.95-4.45 11.3 0 21.05 4.45t16.9 13.55q7.15 9.1 11.2 23 4.05 13.9 4.05 32.9Zm-25.5 0q0-15.7-2.3-26t-6.15-16.4q-3.85-6.1-8.85-8.55-5-2.45-10.4-2.45-5.3 0-10.25 2.45t-8.75 8.55q-3.8 6.1-6.05 16.4-2.25 10.3-2.25 26t2.25 26q2.25 10.3 6.05 16.4 3.8 6.1 8.75 8.55 4.95 2.45 10.25 2.45 5.4 0 10.4-2.45t8.85-8.55q3.85-6.1 6.15-16.4 2.3-10.3 2.3-26Zm141.5 0q0 18.9-4.05 32.85-4.05 13.95-11.2 23.05-7.15 9.1-16.9 13.55-9.75 4.45-21.05 4.45t-20.95-4.45q-9.65-4.45-16.75-13.55-7.1-9.1-11.1-23.05-4-13.95-4-32.85 0-19 4-32.9 4-13.9 11.1-23t16.75-13.55q9.65-4.45 20.95-4.45 11.3 0 21.05 4.45t16.9 13.55q7.15 9.1 11.2 23 4.05 13.9 4.05 32.9Zm-25.5 0q0-15.7-2.3-26t-6.15-16.4q-3.85-6.1-8.85-8.55-5-2.45-10.4-2.45-5.3 0-10.25 2.45t-8.75 8.55q-3.8 6.1-6.05 16.4-2.25 10.3-2.25 26t2.25 26q2.25 10.3 6.05 16.4 3.8 6.1 8.75 8.55 4.95 2.45 10.25 2.45 5.4 0 10.4-2.45t8.85-8.55q3.85-6.1 6.15-16.4 2.3-10.3 2.3-26Zm141.5 0q0 18.9-4.05 32.85-4.05 13.95-11.2 23.05-7.15 9.1-16.9 13.55-9.75 4.45-21.05 4.45t-20.95-4.45q-9.65-4.45-16.75-13.55-7.1-9.1-11.1-23.05-4-13.95-4-32.85 0-19 4-32.9 4-13.9 11.1-23t16.75-13.55q9.65-4.45 20.95-4.45 11.3 0 21.05 4.45t16.9 13.55q7.15 9.1 11.2 23 4.05 13.9 4.05 32.9Zm-25.5 0q0-15.7-2.3-26t-6.15-16.4q-3.85-6.1-8.85-8.55-5-2.45-10.4-2.45-5.3 0-10.25 2.45t-8.75 8.55q-3.8 6.1-6.05 16.4-2.25 10.3-2.25 26t2.25 26q2.25 10.3 6.05 16.4 3.8 6.1 8.75 8.55 4.95 2.45 10.25 2.45 5.4 0 10.4-2.45t8.85-8.55q3.85-6.1 6.15-16.4 2.3-10.3 2.3-26Z"/></svg>