<svg xmlns="http://www.w3.org/2000/svg" width="2000" height="1000" viewBox="0 0 2000 1000"><rect width="100%" height="100%" fill="#DDDDDD"/><path fill="#999999" d="M460.995 552.005h39.14q4.22 0 6.7 2.38 2.48 2.37 2.48 6.28v15.61h-104.65v-8.65q0-2.64 1.1-5.54 1.11-2.9 3.54-5.22l46.31-46.42q5.8-5.91 10.39-11.29 4.59-5.38 7.65-10.66 3.06-5.27 4.7-10.7 1.63-5.44 1.63-11.45 0-5.49-1.58-9.65-1.58-4.17-4.48-7.02-2.91-2.85-6.97-4.27-4.06-1.43-9.12-1.43-4.64 0-8.6 1.32t-7.02 3.69q-3.06 2.38-5.17 5.54-2.11 3.17-3.16 6.97-1.79 4.85-4.64 6.43-2.85 1.58-8.23.74l-13.72-2.43q1.59-10.97 6.12-19.25 4.54-8.28 11.34-13.82 6.81-5.54 15.62-8.34 8.81-2.79 18.93-2.79 10.55 0 19.31 3.11 8.76 3.11 14.98 8.81 6.23 5.7 9.71 13.72 3.48 8.01 3.48 17.83 0 8.44-2.48 15.61t-6.65 13.71q-4.16 6.54-9.76 12.66-5.59 6.12-11.71 12.45l-34.39 35.13q4.96-1.47 9.87-2.26 4.9-.8 9.33-.8Zm175.13-52.01q0 19.94-4.27 34.66-4.27 14.72-11.82 24.32-7.54 9.6-17.83 14.29-10.28 4.7-22.2 4.7-11.93 0-22.11-4.7-10.18-4.69-17.67-14.29-7.49-9.6-11.71-24.32-4.22-14.72-4.22-34.66 0-20.04 4.22-34.71 4.22-14.66 11.71-24.26 7.49-9.6 17.67-14.3 10.18-4.69 22.11-4.69 11.92 0 22.2 4.69 10.29 4.7 17.83 14.3 7.55 9.6 11.82 24.26 4.27 14.67 4.27 34.71Zm-26.9 0q0-16.56-2.43-27.43-2.42-10.86-6.49-17.3-4.06-6.43-9.33-9.02-5.28-2.58-10.97-2.58-5.6 0-10.82 2.58-5.22 2.59-9.23 9.02-4.01 6.44-6.38 17.3-2.38 10.87-2.38 27.43 0 16.57 2.38 27.43 2.37 10.87 6.38 17.31 4.01 6.43 9.23 9.02 5.22 2.58 10.82 2.58 5.69 0 10.97-2.58 5.27-2.59 9.33-9.02 4.07-6.44 6.49-17.31 2.43-10.86 2.43-27.43Zm149.28 0q0 19.94-4.27 34.66-4.27 14.72-11.82 24.32-7.54 9.6-17.83 14.29-10.28 4.7-22.2 4.7-11.93 0-22.11-4.7-10.18-4.69-17.67-14.29-7.49-9.6-11.71-24.32-4.22-14.72-4.22-34.66 0-20.04 4.22-34.71 4.22-14.66 11.71-24.26 7.49-9.6 17.67-14.3 10.18-4.69 22.11-4.69 11.92 0 22.2 4.69 10.29 4.7 17.83 14.3 7.55 9.6 11.82 24.26 4.27 14.67 4.27 34.71Zm-26.9 0q0-16.56-2.43-27.43-2.42-10.86-6.49-17.3-4.06-6.43-9.33-9.02-5.28-2.58-10.97-2.58-5.6 0-10.82 2.58-5.22 2.59-9.23 9.02-4.01 6.44-6.38 17.3-2.38 10.87-2.38 27.43 0 16.57 2.38 27.43 2.37 10.87 6.38 17.31 4.01 6.43 9.23 9.02 5.22 2.58 10.82 2.58 5.69 0 10.97-2.58 5.27-2.59 9.33-9.02 4.07-6.44 6.49-17.31 2.43-10.86 2.43-27.43Zm149.28 0q0 19.94-4.27 34.66-4.27 14.72-11.82 24.32-7.54 9.6-17.83 14.29-10.28 4.7-22.2 4.7-11.93 0-22.11-4.7-10.18-4.69-17.67-14.29-7.49-9.6-11.71-24.32-4.22-14.72-4.22-34.66 0-20.04 4.22-34.71 4.22-14.66 11.71-24.26 7.49-9.6 17.67-14.3 10.18-4.69 22.11-4.69 11.92 0 22.2 4.69 10.29 4.7 17.83 14.3 7.55 9.6 11.82 24.26 4.27 14.67 4.27 34.71Zm-26.9 0q0-16.56-2.43-27.43-2.42-10.86-6.49-17.3-4.06-6.43-9.33-9.02-5.28-2.58-10.97-2.58-5.6 0-10.82 2.58-5.22 2.59-9.23 9.02-4.01 6.44-6.38 17.3-2.38 10.87-2.38 27.43 0 16.57 2.38 27.43 2.37 10.87 6.38 17.31 4.01 6.43 9.23 9.02 5.22 2.58 10.82 2.58 5.69 0 10.97-2.58 5.27-2.59 9.33-9.02 4.07-6.44 6.49-17.31 2.43-10.86 2.43-27.43Zm194.44 41.36-13.82 13.61-35.77-35.77-36.08 35.98-13.82-13.61 36.08-36.19-34.39-34.39 13.71-13.71 34.4 34.39 34.18-34.18 13.92 13.71-34.28 34.29 35.87 35.87Zm144.43 15.4h27.43v19.52h-84.4v-19.52h30.91v-88.93q0-5.28.31-10.87l-21.94 18.36q-1.9 1.47-3.75 1.84-1.84.37-3.48.06-1.63-.32-2.9-1.11-1.26-.79-1.9-1.74l-8.23-11.29 46.53-39.56h21.42v133.24Zm157.72-56.76q0 19.94-4.27 34.66-4.28 14.72-11.82 24.32t-17.83 14.29q-10.29 4.7-22.21 4.7-11.92 0-22.1-4.7-10.18-4.69-17.67-14.29-7.49-9.6-11.71-24.32-4.22-14.72-4.22-34.66 0-20.04 4.22-34.71 4.22-14.66 11.71-24.26 7.49-9.6 17.67-14.3 10.18-4.69 22.1-4.69 11.92 0 22.21 4.69 10.29 4.7 17.83 14.3 7.54 9.6 11.82 24.26 4.27 14.67 4.27 34.71Zm-26.9 0q0-16.56-2.43-27.43-2.43-10.86-6.49-17.3-4.06-6.43-9.34-9.02-5.27-2.58-10.97-2.58-5.59 0-10.81 2.58-5.22 2.59-9.23 9.02-4.01 6.44-6.39 17.3-2.37 10.87-2.37 27.43 0 16.57 2.37 27.43 2.38 10.87 6.39 17.31 4.01 6.43 9.23 9.02 5.22 2.58 10.81 2.58 5.7 0 10.97-2.58 5.28-2.59 9.34-9.02 4.06-6.44 6.49-17.31 2.43-10.86 2.43-27.43Zm149.28 0q0 19.94-4.27 34.66-4.28 14.72-11.82 24.32t-17.83 14.29q-10.29 4.7-22.21 4.7-11.92 0-22.1-4.7-10.18-4.69-17.67-14.29-7.49-9.6-11.71-24.32-4.22-14.72-4.22-34.66 0-20.04 4.22-34.71 4.22-14.66 11.71-24.26 7.49-9.6 17.67-14.3 10.18-4.69 22.1-4.69 11.92 0 22.21 4.69 10.29 4.7 17.83 14.3 7.54 9.6 11.82 24.26 4.27 14.67 4.27 34.71Zm-26.9 0q0-16.56-2.43-27.43-2.43-10.86-6.49-17.3-4.06-6.43-9.34-9.02-5.27-2.58-10.97-2.58-5.59 0-10.81 2.58-5.22 2.59-9.23 9.02-4.01 6.44-6.39 17.3-2.37 10.87-2.37 27.43 0 16.57 2.37 27.43 2.38 10.87 6.39 17.31 4.01 6.43 9.23 9.02 5.22 2.58 10.81 2.58 5.7 0 10.97-2.58 5.28-2.59 9.34-9.02 4.06-6.44 6.49-17.31 2.43-10.86 2.43-27.43Zm149.28 0q0 19.94-4.27 34.66-4.28 14.72-11.82 24.32t-17.83 14.29q-10.29 4.7-22.21 4.7-11.92 0-22.1-4.7-10.18-4.69-17.67-14.29-7.49-9.6-11.71-24.32-4.22-14.72-4.22-34.66 0-20.04 4.22-34.71 4.22-14.66 11.71-24.26 7.49-9.6 17.67-14.3 10.18-4.69 22.1-4.69 11.92 0 22.21 4.69 10.29 4.7 17.83 14.3 7.54 9.6 11.82 24.26 4.27 14.67 4.27 34.71Zm-26.9 0q0-16.56-2.43-27.43-2.43-10.86-6.49-17.3-4.06-6.43-9.34-9.02-5.27-2.58-10.97-2.58-5.59 0-10.81 2.58-5.22 2.59-9.23 9.02-4.01 6.44-6.39 17.3-2.37 10.87-2.37 27.43 0 16.57 2.37 27.43 2.38 10.87 6.39 17.31 4.01 6.43 9.23 9.02 5.22 2.58 10.81 2.58 5.7 0 10.97-2.58 5.28-2.59 9.34-9.02 4.06-6.44 6.49-17.31 2.43-10.86 2.43-27.43Z"/></svg>