<svg xmlns="http://www.w3.org/2000/svg" width="3000" height="1500" viewBox="0 0 3000 1500"><rect width="100%" height="100%" fill="#DDDDDD"/><path fill="#999999" d="m634.795 703.075-20.54-3.63q2.37-16.44 9.16-28.84 6.79-12.4 16.99-20.7 10.19-8.29 23.38-12.48 13.19-4.19 28.36-4.19 15.8 0 28.52 4.51 12.72 4.5 21.72 12.48 9.01 7.98 13.83 18.72 4.82 10.75 4.82 23.23 0 10.9-2.45 19.19-2.45 8.3-7.03 14.46t-11.38 10.43q-6.79 4.27-15.32 7.11 20.54 6.48 30.65 19.75t10.11 33.34q0 17.06-6.32 30.18-6.32 13.11-17.06 22.04-10.75 8.92-24.89 13.51-14.14 4.58-29.94 4.58-17.22 0-30.02-3.95t-22.28-11.69q-9.48-7.75-16.11-18.96-6.64-11.22-11.38-25.92l17.22-7.11q6.8-2.84 12.72-1.5 5.93 1.35 8.61 6.4 2.85 5.53 6.24 10.9 3.4 5.38 8.14 9.56 4.74 4.19 11.14 6.8 6.4 2.6 15.25 2.6 9.95 0 17.38-3.24 7.42-3.23 12.4-8.45 4.98-5.21 7.43-11.61 2.44-6.4 2.44-12.88 0-8.21-1.73-14.93-1.74-6.71-7.27-11.45-5.53-4.74-15.88-7.43-10.35-2.69-27.73-2.69v-27.8q14.38-.16 23.86-2.69 9.48-2.53 15.09-7.03 5.61-4.5 7.82-10.82t2.21-13.91q0-16.11-9.01-24.49-9-8.37-24.01-8.37-6.95 0-12.8 1.97-5.85 1.98-10.51 5.53-4.66 3.56-7.82 8.3t-4.74 10.43q-2.68 7.26-7.03 9.63-4.34 2.37-12.24 1.11Zm321.05 46.93q0 29.86-6.4 51.9t-17.69 36.42q-11.3 14.38-26.7 21.41-15.41 7.03-33.26 7.03-17.86 0-33.1-7.03-15.25-7.03-26.47-21.41-11.22-14.38-17.54-36.42-6.32-22.04-6.32-51.9 0-30.02 6.32-51.99 6.32-21.96 17.54-36.34 11.22-14.37 26.47-21.41 15.24-7.03 33.1-7.03 17.85 0 33.26 7.03 15.4 7.04 26.7 21.41 11.29 14.38 17.69 36.34 6.4 21.97 6.4 51.99Zm-40.29 0q0-24.81-3.63-41.08-3.64-16.28-9.72-25.92-6.08-9.63-13.98-13.51-7.9-3.87-16.43-3.87-8.38 0-16.2 3.87-7.82 3.88-13.82 13.51-6.01 9.64-9.56 25.92-3.56 16.27-3.56 41.08 0 24.8 3.56 41.08 3.55 16.27 9.56 25.91 6 9.64 13.82 13.51 7.82 3.87 16.2 3.87 8.53 0 16.43-3.87t13.98-13.51q6.08-9.64 9.72-25.91 3.63-16.28 3.63-41.08Zm223.57 0q0 29.86-6.4 51.9t-17.69 36.42q-11.3 14.38-26.7 21.41-15.41 7.03-33.26 7.03-17.86 0-33.1-7.03-15.25-7.03-26.47-21.41-11.22-14.38-17.54-36.42-6.32-22.04-6.32-51.9 0-30.02 6.32-51.99 6.32-21.96 17.54-36.34 11.22-14.37 26.47-21.41 15.24-7.03 33.1-7.03 17.85 0 33.26 7.03 15.4 7.04 26.7 21.41 11.29 14.38 17.69 36.34 6.4 21.97 6.4 51.99Zm-40.29 0q0-24.81-3.63-41.08-3.64-16.28-9.72-25.92-6.08-9.63-13.98-13.51-7.9-3.87-16.43-3.87-8.38 0-16.2 3.87-7.82 3.88-13.82 13.51-6.01 9.64-9.56 25.92-3.56 16.27-3.56 41.08 0 24.8 3.56 41.08 3.55 16.27 9.56 25.91 6 9.64 13.82 13.51 7.82 3.87 16.2 3.87 8.53 0 16.43-3.87t13.98-13.51q6.08-9.64 9.72-25.91 3.63-16.28 3.63-41.08Zm223.57 0q0 29.86-6.4 51.9t-17.69 36.42q-11.3 14.38-26.7 21.41-15.41 7.03-33.26 7.03-17.86 0-33.1-7.03-15.25-7.03-26.47-21.41-11.22-14.38-17.54-36.42-6.32-22.04-6.32-51.9 0-30.02 6.32-51.99 6.32-21.96 17.54-36.34 11.22-14.37 26.47-21.41 15.24-7.03 33.1-7.03 17.85 0 33.26 7.03 15.4 7.04 26.7 21.41 11.29 14.38 17.69 36.34 6.4 21.97 6.4 51.99Zm-40.29 0q0-24.81-3.63-41.08-3.64-16.28-9.72-25.92-6.08-9.63-13.98-13.51-7.9-3.87-16.43-3.87-8.38 0-16.2 3.87-7.82 3.88-13.82 13.51-6.01 9.64-9.56 25.92-3.56 16.27-3.56 41.08 0 24.8 3.56 41.08 3.55 16.27 9.56 25.91 6 9.64 13.82 13.51 7.82 3.87 16.2 3.87 8.53 0 16.43-3.87t13.98-13.51q6.08-9.64 9.72-25.91 3.63-16.28 3.63-41.08Zm291.2 61.93-20.7 20.38-53.56-53.56-54.04 53.88-20.7-20.38 54.04-54.2-51.51-51.5 20.54-20.54 51.51 51.5 51.19-51.19 20.86 20.54-51.35 51.35 53.72 53.72Zm216.3 23.07h41.08v29.23h-126.4v-29.23h46.29v-133.19q0-7.9.48-16.28l-32.87 27.49q-2.84 2.22-5.61 2.77-2.76.55-5.21.08-2.45-.48-4.35-1.66-1.89-1.19-2.84-2.61l-12.32-16.9 69.67-59.25h32.08v199.55Zm133.03-163.85-8.05 47.56q7.58-1.58 14.53-2.29 6.95-.71 13.43-.71 18.01 0 31.76 5.37t23.07 14.85q9.32 9.48 14.06 22.2 4.74 12.72 4.74 27.42 0 18.17-6.4 33.18-6.4 15.01-17.77 25.67-11.38 10.67-26.94 16.51-15.57 5.85-33.89 5.85-10.75 0-20.39-2.21-9.63-2.22-18.09-5.93-8.45-3.71-15.64-8.53-7.19-4.82-12.88-10.19l12.01-16.59q3.79-5.37 9.96-5.37 3.95 0 8.05 2.52 4.11 2.53 9.41 5.53 5.29 3.01 12.48 5.53 7.19 2.53 17.3 2.53 10.74 0 18.96-3.47 8.21-3.48 13.67-9.72 5.45-6.24 8.21-14.85 2.77-8.61 2.77-18.73 0-18.64-10.83-29.15-10.82-10.5-31.99-10.5-16.28 0-33.34 6l-24.33-6.95 18.96-110.92h112.81v16.59q0 8.38-5.21 13.59-5.22 5.21-17.7 5.21h-62.73Zm286.46 78.85q0 29.86-6.4 51.9t-17.7 36.42q-11.29 14.38-26.7 21.41-15.4 7.03-33.26 7.03-17.85 0-33.1-7.03t-26.46-21.41q-11.22-14.38-17.54-36.42-6.32-22.04-6.32-51.9 0-30.02 6.32-51.99 6.32-21.96 17.54-36.34 11.21-14.37 26.46-21.41 15.25-7.03 33.1-7.03 17.86 0 33.26 7.03 15.41 7.04 26.7 21.41 11.3 14.38 17.7 36.34 6.4 21.97 6.4 51.99Zm-40.29 0q0-24.81-3.64-41.08-3.63-16.28-9.71-25.92-6.09-9.63-13.99-13.51-7.9-3.87-16.43-3.87-8.37 0-16.19 3.87-7.82 3.88-13.83 13.51-6 9.64-9.56 25.92-3.55 16.27-3.55 41.08 0 24.8 3.55 41.08 3.56 16.27 9.56 25.91 6.01 9.64 13.83 13.51 7.82 3.87 16.19 3.87 8.53 0 16.43-3.87t13.99-13.51q6.08-9.64 9.71-25.91 3.64-16.28 3.64-41.08Zm223.57 0q0 29.86-6.4 51.9t-17.7 36.42q-11.29 14.38-26.7 21.41-15.4 7.03-33.26 7.03-17.85 0-33.1-7.03t-26.46-21.41q-11.22-14.38-17.54-36.42-6.32-22.04-6.32-51.9 0-30.02 6.32-51.99 6.32-21.96 17.54-36.34 11.21-14.37 26.46-21.41 15.25-7.03 33.1-7.03 17.86 0 33.26 7.03 15.41 7.04 26.7 21.41 11.3 14.38 17.7 36.34 6.4 21.97 6.4 51.99Zm-40.29 0q0-24.81-3.64-41.08-3.63-16.28-9.71-25.92-6.09-9.63-13.99-13.51-7.9-3.87-16.43-3.87-8.37 0-16.19 3.87-7.82 3.88-13.83 13.51-6 9.64-9.56 25.92-3.55 16.27-3.55 41.08 0 24.8 3.55 41.08 3.56 16.27 9.56 25.91 6.01 9.64 13.83 13.51 7.82 3.87 16.19 3.87 8.53 0 16.43-3.87t13.99-13.51q6.08-9.64 9.71-25.91 3.64-16.28 3.64-41.08Z"/></svg>